<svg version="1.2" xmlns="http://www.w3.org/2000/svg" viewBox="0 0 53 61" width="53" height="61"><style>.a{fill:#ed1d26}</style><path class="a" d="m26.5 34.3q0.7 0 1.5-0.3 0.7-0.3 1.2-0.8 0.6-0.6 0.9-1.3 0.3-0.7 0.3-1.5h-2c0 0.5-0.2 1-0.6 1.4-0.3 0.3-0.8 0.5-1.3 0.5-0.6 0-1.1-0.2-1.4-0.5-0.4-0.4-0.6-0.9-0.6-1.4h-2q0 0.8 0.3 1.5 0.3 0.7 0.9 1.3 0.5 0.5 1.3 0.8 0.7 0.3 1.5 0.3z"/><path fill-rule="evenodd" class="a" d="m49.9 50.5q1 1.4 1.6 2.9 0.7 1.5 1.1 3.1 0.3 1.6 0.3 3.3v1h-52.9v-1q0-1.7 0.3-3.3 0.4-1.6 1.1-3.1 0.7-1.6 1.7-2.9 0.9-1.3 2.2-2.4-0.1-0.4-0.1-0.8-0.1-0.4-0.2-0.9 0-0.4 0-0.8-0.1-0.4-0.1-0.8 0-1.5 0.1-2.9 0.2-1.5 0.5-2.9 0.4-1.5 0.9-2.8 0.6-1.4 1.3-2.7 0.5-0.9 0.9-1.9 0.4-1 0.7-2 0.2-1 0.4-2.1 0.1-1 0.1-2.1v-8.7c0-4.5 1.8-8.7 4.9-11.8 3.1-3.1 7.3-4.9 11.8-4.9 4.4 0 8.6 1.8 11.7 4.9 3.2 3.1 4.9 7.3 4.9 11.8v8.7q0 1.1 0.1 2.1 0.2 1 0.4 2.1 0.3 1 0.7 2 0.4 0.9 0.9 1.8 0.9 1.7 1.6 3.5 0.6 1.8 0.9 3.7 0.3 1.8 0.3 3.7 0 1.9-0.4 3.8 1.3 1.1 2.3 2.4zm-43-5.3q0 0.3 0 0.5 0.1 0.3 0.1 0.5 0 0.3 0.1 0.5 0.3-0.2 0.6-0.3 0.3-0.2 0.6-0.4 0.4-0.2 0.7-0.3 0.3-0.2 0.7-0.3l10-4.2q0.4-0.1 0.8-0.4 0.3-0.3 0.6-0.6 0.2-0.4 0.3-0.8 0.2-0.4 0.2-0.9v-0.7q-1.9-1.2-3.3-2.9-1.5-1.6-2.5-3.6-1-1.9-1.6-4.1-0.5-2.1-0.5-4.3v-3.3q0-1 0.4-1.9 0.4-0.9 1.1-1.6 0.6-0.7 1.5-1 0.9-0.4 1.9-0.4h8.4q0.8 0 1.7-0.2 0.8-0.3 1.5-0.7 0.7-0.5 1.3-1.1 0.6-0.6 0.9-1.4l0.6-1.1 2.9 2.4q0.8 0.6 1.4 1.4 0.6 0.7 1 1.6 0.5 0.9 0.7 1.9 0.2 1 0.2 1.9v3.5q0 2.2-0.5 4.3-0.6 2.2-1.6 4.1-1 2-2.5 3.6-1.4 1.7-3.2 2.9v0.7q0 0.5 0.1 0.9 0.1 0.4 0.4 0.8 0.2 0.3 0.5 0.6 0.4 0.3 0.8 0.4l10 4.2q0.4 0.1 0.7 0.3 0.4 0.1 0.7 0.3 0.3 0.2 0.6 0.4 0.4 0.1 0.7 0.4 0.2-1.6 0.2-3.2-0.1-1.6-0.4-3.2-0.3-1.6-0.8-3.1-0.6-1.5-1.4-2.9-0.6-1-1-2.1-0.5-1.1-0.8-2.2-0.3-1.2-0.4-2.3-0.1-1.2-0.1-2.4v-8.7c0-3.9-1.6-7.7-4.3-10.4-2.8-2.8-6.5-4.3-10.4-4.3-3.9 0-7.7 1.5-10.4 4.3-2.8 2.7-4.3 6.5-4.3 10.4v8.7q0 1.2-0.2 2.4-0.1 1.2-0.4 2.3-0.3 1.2-0.8 2.3-0.4 1.1-1 2.1-0.7 1.2-1.2 2.4-0.5 1.2-0.8 2.5-0.3 1.3-0.4 2.7-0.2 1.3-0.1 2.6 0 0.3 0 0.5zm28.5-26.4q0.6 0.3 1 0.7 0.4 0.4 0.6 0.9 0.2 0.6 0.2 1.2v-2.2q0-0.7-0.1-1.5-0.2-0.7-0.5-1.4-0.4-0.7-0.8-1.3-0.5-0.6-1.1-1.1l-1.1-0.9q-0.6 0.8-1.3 1.5-0.7 0.6-1.6 1.1-0.9 0.4-1.8 0.6-0.9 0.3-1.9 0.3h-8.4q-0.6 0-1.1 0.2-0.5 0.2-1 0.6-0.4 0.4-0.6 1-0.2 0.5-0.2 1.1v2q0-0.6 0.2-1.2 0.2-0.5 0.6-0.9 0.5-0.4 1-0.7 0.5-0.2 1.1-0.2h3.9q0.5 0 0.9 0.2 0.5 0.1 0.8 0.4 0.4 0.2 0.7 0.6 0.2 0.4 0.4 0.8h2.3q0.2-0.4 0.4-0.8 0.3-0.4 0.7-0.6 0.4-0.3 0.8-0.4 0.4-0.2 0.9-0.2h3.9q0.6 0 1.1 0.2zm-0.2 2.4q-0.1-0.2-0.2-0.3-0.1-0.2-0.3-0.2-0.2-0.1-0.4-0.1h-3.9q-0.2 0-0.4 0.1-0.2 0-0.3 0.2-0.2 0.1-0.2 0.3-0.1 0.2-0.1 0.4v0.9q0 0.4 0.1 0.8 0.2 0.3 0.5 0.6 0.3 0.3 0.6 0.5 0.4 0.1 0.8 0.1h1.9q0.4 0 0.8-0.1 0.3-0.2 0.6-0.5 0.3-0.3 0.4-0.6 0.2-0.4 0.2-0.8v-0.9q0-0.2-0.1-0.4zm-11.8 0q0-0.2-0.2-0.3-0.1-0.2-0.3-0.2-0.2-0.1-0.4-0.1h-3.9q-0.2 0-0.4 0.1-0.1 0-0.3 0.2-0.1 0.1-0.2 0.3-0.1 0.2-0.1 0.4v0.9q0 0.4 0.2 0.8 0.1 0.3 0.4 0.6 0.3 0.3 0.7 0.5 0.3 0.1 0.7 0.1h2q0.3 0 0.7-0.1 0.4-0.2 0.6-0.5 0.3-0.3 0.5-0.6 0.1-0.4 0.1-0.8v-0.9q0-0.2-0.1-0.4zm-5.3 5q-0.7-0.3-1.3-0.9-0.5-0.5-0.8-1.3-0.3-0.7-0.3-1.5v0.4q0 2.5 0.7 4.9 0.8 2.4 2.2 4.4 1.5 2.1 3.5 3.6 2 1.5 4.4 2.4 2.3-0.9 4.3-2.4 2-1.5 3.5-3.6 1.4-2 2.2-4.4 0.7-2.4 0.7-4.9v-0.4q0 0.8-0.3 1.5-0.3 0.8-0.8 1.3-0.6 0.6-1.3 0.9-0.7 0.3-1.5 0.3h-1.9q-0.8 0-1.5-0.3-0.8-0.3-1.3-0.9-0.6-0.5-0.9-1.3-0.3-0.7-0.3-1.5h-1.9q0 0.8-0.3 1.5-0.3 0.8-0.9 1.3-0.5 0.6-1.2 0.9-0.8 0.3-1.5 0.3h-2q-0.8 0-1.5-0.3zm7.4 13.7q-0.4-0.1-0.7-0.3-0.3-0.1-0.7-0.3-0.3-0.1-0.6-0.3 0 0.4-0.1 0.7-0.1 0.4-0.3 0.8-0.1 0.3-0.3 0.6-0.2 0.3-0.5 0.6l4.2 3.1 4.1-3.1q-0.2-0.3-0.4-0.6-0.2-0.3-0.4-0.6-0.1-0.4-0.2-0.8-0.1-0.3-0.2-0.7-0.3 0.2-0.6 0.3-0.3 0.2-0.7 0.3-0.3 0.2-0.6 0.3-0.4 0.1-0.7 0.2l-0.3 0.1-0.4-0.1q-0.3-0.1-0.6-0.2zm-6.6 3.8l2.9 6.4 3.2-3.9-4.3-3.2q-0.1 0-0.2 0.1zm7.2 4.2l-1.5 10.9h3.7l-1.5-10.9-0.4-0.4zm5 2.2l2.9-6.4-1.6-0.7q-0.1 0-0.2-0.1l-4.3 3.3zm-24-1q-1.5 1.1-2.6 2.7-1.1 1.5-1.8 3.3-0.6 1.8-0.7 3.7h7.8v-5.9h1.9v5.9h10.9l1.1-8-2.4 3-4.3-9.4-6.6 2.8q-1.8 0.7-3.3 1.9zm43.8 9.7q-0.2-1.9-0.8-3.7-0.7-1.8-1.8-3.3-1.1-1.6-2.6-2.7-1.5-1.2-3.2-1.9l-6.7-2.8-4.2 9.4-2.5-3 1.1 8h10.9v-5.9h2v5.9z"/></svg>