<?xml version="1.0" standalone="no"?>
<!DOCTYPE svg PUBLIC "-//W3C//DTD SVG 20010904//EN"
 "http://www.w3.org/TR/2001/REC-SVG-20010904/DTD/svg10.dtd">
<svg version="1.0" xmlns="http://www.w3.org/2000/svg"
 width="3840.000000pt" height="2160.000000pt" viewBox="0 0 3840.000000 2160.000000"
 preserveAspectRatio="xMidYMid meet">

<g transform="translate(0.000000,2160.000000) scale(0.100000,-0.100000)"
fill="#000000" stroke="none">
<path d="M4738 14315 c-5 -5 -44 -13 -158 -30 -119 -18 -133 -21 -255 -51
-196 -50 -279 -91 -882 -436 -318 -182 -593 -339 -611 -349 -45 -26 -646 -370
-702 -402 -25 -15 -96 -55 -157 -89 -62 -35 -113 -68 -113 -73 0 -6 21 -22 48
-36 26 -15 92 -52 147 -84 55 -32 129 -75 165 -95 177 -100 2788 -1603 2808
-1616 l22 -14 0 -1855 c0 -1377 3 -1855 11 -1855 11 0 798 444 881 496 21 13
40 24 44 24 3 0 18 8 32 18 15 11 52 33 82 49 30 17 100 56 155 88 55 31 120
69 145 83 307 172 808 464 855 497 87 62 138 107 242 212 310 314 527 750 597
1199 14 89 16 271 16 1443 l0 1341 -37 24 c-21 13 -306 178 -633 366 -327 189
-608 351 -625 360 -73 43 -876 506 -930 537 -56 32 -127 66 -200 98 -108 46
-312 99 -469 121 -55 7 -121 18 -146 23 -43 9 -323 14 -332 6z m427 -889 c100
-17 324 -79 400 -110 47 -19 219 -112 382 -206 164 -95 323 -186 353 -203 30
-16 60 -33 65 -38 12 -9 756 -438 835 -482 30 -16 67 -39 83 -49 l27 -19 0
-929 c0 -1010 -2 -1055 -57 -1265 -96 -369 -310 -701 -609 -946 -78 -63 -92
-72 -374 -234 -107 -61 -239 -137 -292 -168 -54 -32 -105 -57 -113 -57 -23 0
-22 341 1 361 9 7 125 75 257 151 283 161 334 196 442 303 125 126 219 261
287 414 16 36 33 75 38 86 14 32 39 112 51 163 38 171 39 185 39 1074 l0 867
-57 34 c-32 19 -211 122 -398 230 -332 190 -488 280 -825 475 -252 146 -342
185 -495 216 -16 4 -41 9 -55 12 -14 4 -107 9 -208 11 -142 4 -205 1 -285 -12
-212 -35 -276 -61 -600 -247 -141 -82 -263 -151 -270 -154 -17 -6 -317 164
-317 180 0 7 19 23 43 36 23 13 182 103 352 200 171 98 335 187 365 200 30 12
64 26 75 31 38 16 214 58 335 78 60 10 460 8 525 -3z m-80 -1240 c11 -2 40 -7
65 -11 83 -13 194 -45 270 -77 60 -26 490 -267 718 -402 l42 -26 0 -422 c0
-233 -5 -454 -10 -492 -22 -148 -114 -362 -236 -549 -35 -54 -69 -95 -74 -92
-7 4 -10 245 -10 693 0 544 -2 688 -12 698 -7 6 -204 122 -438 256 -234 135
-470 271 -525 303 -55 32 -117 67 -138 79 -20 11 -36 25 -34 30 2 6 28 14 58
18 52 6 283 2 324 -6z"/>
<path d="M11846 13232 c-2 -1 -47 -5 -102 -8 -54 -3 -101 -7 -104 -9 -4 -2
-29 -7 -56 -10 -27 -4 -91 -18 -142 -31 -523 -138 -853 -443 -974 -901 -20
-79 -23 -110 -23 -303 0 -145 5 -230 13 -260 56 -196 89 -267 173 -381 131
-177 382 -349 683 -469 90 -35 463 -161 566 -190 424 -120 737 -245 875 -349
178 -135 250 -270 249 -471 0 -82 -5 -119 -23 -169 -75 -213 -271 -343 -596
-396 -139 -22 -417 -23 -550 -1 -299 49 -544 187 -747 419 -64 74 -198 265
-198 284 0 4 -9 19 -19 32 l-18 24 -74 -40 c-41 -22 -135 -72 -209 -111 -74
-38 -172 -90 -217 -113 -46 -24 -83 -48 -83 -53 0 -23 119 -241 182 -333 250
-363 610 -611 1049 -722 103 -26 152 -35 331 -60 67 -9 439 -7 518 4 50 6 171
26 245 40 123 24 325 95 450 160 379 196 613 501 680 883 14 82 22 331 12 350
-3 4 -7 31 -11 60 -6 54 -36 175 -56 228 -72 190 -222 369 -426 511 -202 140
-526 273 -1029 422 -467 138 -724 244 -839 347 -21 19 -44 38 -51 42 -22 13
-88 106 -112 158 -30 66 -38 116 -37 239 1 90 4 107 32 168 38 83 122 174 200
215 68 37 147 68 188 76 16 2 40 7 54 10 26 6 68 12 140 21 63 8 254 8 325 0
391 -43 706 -240 924 -578 l43 -66 122 84 c66 46 187 130 269 186 81 56 147
106 147 113 0 19 -108 193 -171 276 -67 87 -190 216 -258 270 -24 19 -48 40
-55 45 -13 13 -100 69 -171 112 -106 63 -300 144 -419 174 -169 43 -237 55
-371 65 -83 6 -325 11 -329 6z"/>
<path d="M29222 13145 c-4 -5 -5 -714 -2 -1575 l5 -1565 23 -120 c50 -263 122
-452 236 -629 270 -413 748 -631 1406 -640 358 -5 620 40 879 151 84 36 104
46 186 94 205 119 424 360 529 580 32 66 92 219 101 259 22 87 35 145 40 172
3 18 8 40 10 48 4 16 11 67 25 185 4 39 7 738 7 1555 l-2 1485 -367 3 -368 2
0 -1464 c0 -943 -4 -1492 -10 -1543 -35 -266 -114 -456 -249 -596 -124 -130
-251 -190 -524 -246 -50 -11 -336 -11 -384 -1 -21 5 -56 11 -78 14 -164 25
-367 130 -461 238 -101 117 -148 201 -197 354 -22 70 -31 107 -42 179 -4 26
-17 150 -20 195 -1 19 -3 673 -4 1452 l-1 1418 -366 2 c-236 2 -368 -1 -372
-7z"/>
<path d="M14060 10921 c0 -2115 1 -2230 18 -2234 9 -3 175 -4 367 -3 l350 1 3
461 2 462 41 43 c22 24 54 59 71 79 40 45 195 216 274 300 34 36 74 80 89 98
15 17 32 32 38 32 7 0 55 -78 107 -172 52 -95 110 -199 128 -233 19 -33 55
-98 81 -145 27 -47 63 -112 81 -145 18 -33 40 -73 50 -90 19 -33 57 -100 103
-185 16 -30 45 -81 63 -113 19 -32 34 -60 34 -62 0 -2 15 -30 34 -62 31 -55
55 -97 114 -203 13 -25 29 -49 34 -55 11 -13 768 -15 768 -3 0 9 -18 44 -82
153 -19 33 -51 89 -70 125 -20 36 -65 118 -102 183 -36 65 -66 121 -66 124 0
3 -9 18 -20 33 -11 15 -37 61 -59 101 -21 41 -65 121 -98 179 -33 58 -76 134
-95 170 -20 36 -76 137 -125 225 -222 396 -282 505 -318 570 -21 39 -46 81
-55 95 -33 47 -34 68 -4 103 32 38 131 151 195 221 25 28 121 137 214 241 92
105 173 195 179 200 6 6 24 26 40 45 16 19 52 60 80 91 61 67 98 108 191 214
39 43 79 88 90 99 l20 21 -399 3 c-309 2 -402 -1 -414 -10 -14 -12 -280 -315
-365 -417 -21 -25 -63 -72 -92 -106 -29 -33 -207 -238 -394 -455 -188 -217
-346 -396 -351 -398 -7 -3 -10 457 -10 1322 l0 1326 -370 0 -370 0 0 -2229z"/>
<path d="M25805 13138 c-3 -7 -4 -1012 -3 -2233 l3 -2220 370 0 370 0 5 1110
5 1111 44 39 c277 251 545 373 816 373 258 0 394 -91 464 -313 13 -44 16 -193
21 -1185 l5 -1135 365 0 365 0 2 1215 c1 668 -2 1240 -7 1270 -22 144 -38 202
-85 305 -118 261 -333 414 -645 462 -103 15 -377 8 -471 -13 -10 -2 -29 -6
-41 -9 -13 -2 -44 -9 -69 -15 -26 -6 -53 -13 -60 -14 -8 -2 -23 -6 -34 -11
-11 -4 -56 -21 -100 -37 -91 -33 -221 -101 -310 -161 -65 -44 -199 -152 -229
-186 -11 -11 -23 -21 -28 -21 -4 0 -8 378 -8 840 l0 840 -370 0 c-287 0 -372
-3 -375 -12z"/>
<path d="M20627 13003 c-4 -3 -7 -255 -7 -560 l0 -553 -275 0 c-177 0 -275 -4
-275 -10 0 -5 0 -134 0 -285 0 -151 0 -279 0 -284 0 -5 116 -9 270 -8 149 0
272 -2 275 -5 3 -2 5 -436 6 -964 0 -544 5 -994 10 -1039 43 -353 209 -538
554 -615 171 -38 618 -47 805 -15 14 2 52 7 85 10 32 4 62 8 65 10 3 2 5 131
5 287 -1 319 8 289 -80 274 -178 -30 -374 -26 -483 10 -58 19 -129 75 -162
128 -22 37 -44 104 -56 176 -11 65 -11 1731 0 1737 5 4 189 6 408 6 317 0 400
2 406 13 4 7 6 139 4 293 l-3 281 -409 0 c-321 0 -410 3 -411 13 -1 6 -3 253
-4 547 -1 294 -3 541 -4 548 -1 9 -80 12 -359 12 -197 0 -362 -3 -365 -7z"/>
<path d="M1662 12146 l0 -455 87 -49 c47 -28 102 -59 121 -70 176 -100 307
-175 315 -182 6 -4 35 -21 65 -37 30 -17 249 -142 485 -278 237 -136 448 -257
470 -270 22 -12 112 -64 200 -115 88 -50 178 -102 200 -115 22 -12 56 -31 75
-42 19 -11 83 -48 143 -83 59 -34 107 -67 108 -73 3 -39 -3 -362 -6 -365 -4
-5 -115 58 -655 368 -298 172 -505 291 -567 326 -23 13 -47 24 -52 24 -15 0
-785 -439 -789 -449 -1 -5 37 -31 85 -59 82 -46 217 -124 523 -301 69 -40 294
-170 500 -289 206 -118 461 -265 565 -325 105 -61 199 -115 210 -121 11 -7 57
-33 103 -60 l82 -48 0 -179 c0 -118 -4 -179 -10 -179 -6 0 -160 86 -343 191
-183 105 -348 200 -367 211 -19 11 -39 24 -45 28 -5 4 -35 21 -65 37 -50 28
-208 118 -285 163 -27 16 -323 186 -402 231 -18 11 -48 27 -65 38 -18 10 -107
61 -198 113 -91 52 -227 131 -302 176 -76 44 -140 77 -143 72 -15 -24 68 -329
124 -454 10 -23 31 -70 47 -106 122 -281 316 -546 535 -731 138 -117 178 -141
1489 -894 107 -62 335 -193 507 -292 172 -99 315 -178 318 -175 7 7 6 3507 -1
3526 -3 9 -10 16 -14 16 -8 0 -421 235 -510 290 -25 15 -65 39 -90 53 -25 13
-106 60 -180 102 -74 43 -153 87 -175 99 -22 12 -41 24 -43 29 -2 4 -8 7 -14
7 -5 0 -22 8 -36 18 -15 11 -52 33 -82 49 -52 29 -220 125 -285 163 -16 10
-106 62 -200 115 -93 54 -183 106 -200 115 -16 10 -122 71 -235 135 -267 153
-265 152 -302 174 -79 45 -309 177 -368 211 -36 20 -89 51 -118 68 -29 18 -54
32 -56 32 -2 0 -30 16 -62 35 -101 61 -92 99 -92 -419z"/>
<path d="M18280 11947 c-3 -3 -32 -8 -65 -12 -72 -8 -233 -42 -280 -59 -212
-79 -318 -133 -446 -228 -329 -244 -532 -616 -590 -1083 -16 -129 -16 -442 0
-570 74 -585 331 -982 781 -1210 138 -69 299 -117 515 -154 63 -10 428 -8 505
4 37 6 239 48 275 58 182 50 417 172 575 297 79 64 210 191 210 205 0 6 -86
96 -192 199 l-191 187 -51 -49 c-108 -105 -337 -248 -426 -266 -14 -3 -50 -12
-80 -20 -174 -47 -417 -54 -580 -17 -98 22 -244 84 -278 117 -7 8 -17 14 -21
14 -9 0 -114 103 -152 150 -14 17 -43 66 -65 108 -51 104 -58 122 -79 226 -8
39 -16 101 -17 136 l-3 65 1080 1 c594 1 1086 2 1093 3 27 2 6 511 -27 666 -6
28 -15 74 -21 102 -31 174 -129 425 -212 545 -10 14 -18 29 -18 32 0 3 -21 34
-47 68 -144 188 -338 327 -568 406 -75 26 -214 59 -280 67 -68 9 -339 18 -345
12z m370 -630 c237 -74 375 -231 450 -513 12 -42 22 -106 23 -143 l2 -66 -738
0 c-407 0 -743 3 -749 6 -18 11 27 192 73 296 11 24 19 45 19 49 0 3 20 37 45
75 101 156 238 257 413 303 80 22 100 23 247 21 108 -2 144 -7 215 -28z"/>
<path d="M23869 11946 c-2 -2 -30 -7 -63 -11 -505 -57 -924 -342 -1135 -770
-92 -185 -121 -275 -162 -500 -19 -103 -23 -156 -23 -375 -1 -259 3 -304 45
-500 126 -588 522 -1001 1079 -1128 144 -33 275 -45 430 -39 80 3 161 8 180
12 109 19 152 28 220 47 41 12 79 25 84 30 6 4 17 8 25 8 24 0 190 88 270 144
87 59 226 194 294 283 57 75 137 204 184 296 60 120 61 112 -10 137 -34 11
-71 25 -82 30 -11 5 -54 21 -95 35 -231 82 -322 115 -338 124 -25 13 -35 4
-56 -49 -98 -253 -289 -434 -501 -475 -192 -38 -420 -18 -548 47 -96 48 -203
140 -243 208 -10 16 -22 30 -26 30 -4 0 -8 5 -8 11 0 6 -8 23 -18 37 -46 67
-108 254 -126 378 -3 21 -10 68 -15 104 -12 85 -11 378 1 455 65 407 177 604
420 738 100 55 188 72 373 72 116 -1 152 -5 213 -23 132 -41 240 -114 323
-218 49 -62 149 -243 149 -271 0 -7 5 -13 12 -13 11 0 160 51 203 70 11 5 105
38 209 75 104 36 192 68 197 70 9 6 -5 44 -66 170 -150 312 -349 519 -610 635
-39 17 -79 35 -90 40 -20 10 -150 45 -195 53 -14 3 -41 8 -60 11 -19 4 -53 9
-75 12 -51 7 -360 16 -366 10z"/>
<path d="M34800 11947 c-3 -3 -30 -8 -60 -11 -71 -8 -232 -49 -298 -75 -159
-63 -289 -149 -429 -284 -57 -54 -106 -97 -109 -94 -3 3 -6 94 -7 203 l-2 199
-365 0 -365 0 -3 -2194 c-1 -1321 2 -2199 7 -2204 7 -7 617 -13 718 -8 10 1
13 167 15 778 l3 778 77 -71 c165 -154 347 -247 588 -300 93 -20 125 -23 285
-19 99 2 194 6 210 9 195 35 340 87 490 174 184 106 386 352 475 577 13 33 26
65 30 70 7 10 14 36 49 160 20 72 35 144 56 280 19 126 26 433 13 618 -22 309
-111 625 -236 837 -190 324 -444 496 -832 566 -46 8 -304 17 -310 11z m85
-651 c115 -30 204 -81 293 -168 155 -152 247 -391 268 -698 9 -135 9 -180 0
-320 -15 -225 -46 -358 -117 -508 -94 -196 -249 -318 -454 -357 -16 -3 -41 -8
-55 -11 -38 -8 -240 -9 -282 -1 -231 42 -422 149 -585 329 l-53 58 0 649 0
649 73 74 c156 157 356 270 552 313 84 18 272 13 360 -9z"/>
</g>
</svg>
