<?xml version="1.0" standalone="no"?>
<!DOCTYPE svg PUBLIC "-//W3C//DTD SVG 20010904//EN"
 "http://www.w3.org/TR/2001/REC-SVG-20010904/DTD/svg10.dtd">
<svg version="1.0" xmlns="http://www.w3.org/2000/svg"
 width="1200.000000pt" height="600.000000pt" viewBox="0 0 1200.000000 600.000000"
 preserveAspectRatio="xMidYMid meet">

<g transform="translate(0.000000,600.000000) scale(0.100000,-0.100000)"
fill="#000000" stroke="none">
<path d="M4687 5125 c-122 -17 -190 -37 -294 -85 -102 -48 -161 -88 -242 -164
-160 -153 -255 -357 -281 -601 -13 -119 -13 -2431 0 -2550 18 -171 76 -337
162 -463 107 -158 278 -283 473 -347 165 -53 207 -55 1495 -55 1288 0 1330 2
1495 55 362 119 593 413 635 810 6 52 10 593 10 1275 0 682 -4 1223 -10 1275
-26 244 -121 448 -281 601 -150 142 -318 219 -543 249 -100 13 -290 15 -1319
14 -941 -1 -1223 -4 -1300 -14z m2316 -1105 c76 -51 109 -178 71 -268 -17 -43
-57 -88 -95 -107 -40 -21 -119 -28 -167 -15 -153 41 -202 257 -84 368 45 41
81 52 163 50 61 -3 82 -8 112 -28z m-835 -1023 c177 -501 322 -915 322 -920 0
-4 -91 -6 -201 -5 l-202 3 -75 218 -75 217 -328 0 -328 0 -67 -207 c-37 -115
-71 -214 -77 -220 -15 -20 -367 -18 -367 1 0 8 131 391 291 852 237 681 292
852 297 907 l5 67 241 0 241 0 323 -913z m897 451 c3 -13 4 -327 3 -698 l-3
-675 -190 0 -190 0 -3 685 c-1 377 0 691 3 698 3 9 51 12 189 12 184 0 186 0
191 -22z"/>
<path d="M5580 3503 c-13 -48 -62 -213 -110 -365 l-87 -278 224 0 c136 0 223
4 223 10 0 5 -29 101 -65 212 -36 112 -84 268 -107 348 -23 80 -44 149 -48
153 -4 4 -17 -32 -30 -80z"/>
</g>
</svg>
