<?xml version="1.0" encoding="UTF-8"?>
<!DOCTYPE svg PUBLIC "-//W3C//DTD SVG 1.1//EN" "http://www.w3.org/Graphics/SVG/1.1/DTD/svg11.dtd">
<svg xmlns="http://www.w3.org/2000/svg" version="1.1" width="800px" height="400px" style="shape-rendering:geometricPrecision; text-rendering:geometricPrecision; image-rendering:optimizeQuality; fill-rule:evenodd; clip-rule:evenodd" xmlns:xlink="http://www.w3.org/1999/xlink">
<g><path style="opacity:1" fill="#fefefe" d="M -0.5,-0.5 C 266.167,-0.5 532.833,-0.5 799.5,-0.5C 799.5,132.833 799.5,266.167 799.5,399.5C 532.833,399.5 266.167,399.5 -0.5,399.5C -0.5,266.167 -0.5,132.833 -0.5,-0.5 Z"/></g>
<g><path style="opacity:1" fill="#515185" d="M 495.5,51.5 C 430.481,51.1843 365.481,51.5176 300.5,52.5C 301.263,51.7321 302.263,51.2321 303.5,51C 367.668,50.168 431.668,50.3346 495.5,51.5 Z"/></g>
<g><path style="opacity:1" fill="#7a77a4" d="M 495.5,51.5 C 498.428,51.5651 501.095,52.2318 503.5,53.5C 500.505,53.7062 497.838,53.0395 495.5,51.5 Z"/></g>
<g><path style="opacity:1" fill="#989ac2" d="M 503.5,53.5 C 505.698,53.1201 507.365,53.7868 508.5,55.5C 506.597,55.2041 504.93,54.5375 503.5,53.5 Z"/></g>
<g><path style="opacity:1" fill="#4b467f" d="M 295.5,53.5 C 293.245,55.3803 290.578,56.3803 287.5,56.5C 289.755,54.6197 292.422,53.6197 295.5,53.5 Z"/></g>
<g><path style="opacity:1" fill="#01005c" d="M 495.5,51.5 C 497.838,53.0395 500.505,53.7062 503.5,53.5C 504.93,54.5375 506.597,55.2041 508.5,55.5C 513.659,57.9121 518.659,60.5788 523.5,63.5C 523.351,64.552 523.517,65.552 524,66.5C 528.868,71.0367 533.702,75.3701 538.5,79.5C 539.338,79.8417 539.672,80.5084 539.5,81.5C 539.197,84.5876 540.53,86.2542 543.5,86.5C 543.5,86.8333 543.5,87.1667 543.5,87.5C 545.439,95.4812 547.272,103.481 549,111.5C 549.5,172.832 549.667,234.166 549.5,295.5C 549.071,299.677 548.071,303.677 546.5,307.5C 544.738,308.262 543.738,309.596 543.5,311.5C 543.5,312.167 543.5,312.833 543.5,313.5C 539.786,317.883 536.453,322.55 533.5,327.5C 531.5,327.5 530.5,328.5 530.5,330.5C 526.341,333.747 522.008,336.747 517.5,339.5C 515.181,339.992 513.181,340.992 511.5,342.5C 508.888,343.371 506.221,344.037 503.5,344.5C 498.141,344.67 492.808,345.17 487.5,346C 428.833,346.667 370.167,346.667 311.5,346C 306.156,345.529 300.822,345.029 295.5,344.5C 293.435,344.483 291.435,344.15 289.5,343.5C 288.486,342.326 287.153,341.66 285.5,341.5C 284.972,340.279 284.305,339.113 283.5,338C 280.005,337.881 277.005,336.715 274.5,334.5C 274.944,332.887 275.944,331.72 277.5,331C 276.833,330.333 276.167,329.667 275.5,329C 277.35,329.595 279.35,330.095 281.5,330.5C 279.859,326.001 276.526,324.001 271.5,324.5C 271.393,326.903 272.393,328.736 274.5,330C 273.5,330.667 272.5,330.667 271.5,330C 268.266,326.855 265.266,323.522 262.5,320C 261.906,319.536 261.239,319.369 260.5,319.5C 259.527,317.861 258.194,316.527 256.5,315.5C 255.766,314.292 255.433,312.959 255.5,311.5C 255.843,309.517 255.176,308.183 253.5,307.5C 252.766,306.292 252.433,304.959 252.5,303.5C 251.543,297.966 251.877,292.466 253.5,287C 253.558,230.312 253.391,173.479 253,116.5C 252.332,111.727 251.499,107.06 250.5,102.5C 250.993,100.194 251.326,97.861 251.5,95.5C 252.066,92.1268 253.399,89.1268 255.5,86.5C 258.08,84.9112 259.413,82.5779 259.5,79.5C 260.833,77.8333 262.167,76.1667 263.5,74.5C 264.833,73.8333 265.833,72.8333 266.5,71.5C 269.709,67.5545 273.376,64.0545 277.5,61C 279.058,60.79 280.391,60.29 281.5,59.5C 283.967,59.2451 285.967,58.2451 287.5,56.5C 290.578,56.3803 293.245,55.3803 295.5,53.5C 296.919,52.5489 298.585,52.2155 300.5,52.5C 365.481,51.5176 430.481,51.1843 495.5,51.5 Z"/></g>
<g><path style="opacity:1" fill="#676698" d="M 287.5,56.5 C 285.967,58.2451 283.967,59.2451 281.5,59.5C 282.911,57.461 284.911,56.461 287.5,56.5 Z"/></g>
<g><path style="opacity:1" fill="#161455" d="M 523.5,63.5 C 524.872,64.5116 526.205,65.5116 527.5,66.5C 529.833,69.5 532.5,72.1667 535.5,74.5C 536.925,75.922 537.925,77.5887 538.5,79.5C 533.702,75.3701 528.868,71.0367 524,66.5C 523.517,65.552 523.351,64.552 523.5,63.5 Z"/></g>
<g><path style="opacity:1" fill="#9b9bc1" d="M 527.5,66.5 C 531.167,68.1667 533.833,70.8333 535.5,74.5C 532.5,72.1667 529.833,69.5 527.5,66.5 Z"/></g>
<g><path style="opacity:1" fill="#7979a7" d="M 266.5,71.5 C 265.833,72.8333 264.833,73.8333 263.5,74.5C 263.5,72.5 264.5,71.5 266.5,71.5 Z"/></g>
<g><path style="opacity:1" fill="#292863" d="M 539.5,81.5 C 541.531,82.5387 542.864,84.2054 543.5,86.5C 540.53,86.2542 539.197,84.5876 539.5,81.5 Z"/></g>
<g><path style="opacity:1" fill="#434381" d="M 259.5,79.5 C 259.413,82.5779 258.08,84.9112 255.5,86.5C 256.079,83.6689 257.412,81.3356 259.5,79.5 Z"/></g>
<g><path style="opacity:1" fill="#777aa1" d="M 545.5,91.5 C 547.104,92.287 547.771,93.6203 547.5,95.5C 546.326,94.4863 545.66,93.153 545.5,91.5 Z"/></g>
<g><path style="opacity:1" fill="#504f82" d="M 251.5,95.5 C 251.326,97.861 250.993,100.194 250.5,102.5C 250.167,102.5 249.833,102.5 249.5,102.5C 249.41,99.8478 250.076,97.5145 251.5,95.5 Z"/></g>
<g><path style="opacity:1" fill="#8081ad" d="M 547.5,95.5 C 549.074,97.1016 549.741,99.1016 549.5,101.5C 547.926,99.8984 547.259,97.8984 547.5,95.5 Z"/></g>
<g><path style="opacity:1" fill="#0e095b" d="M 249.5,102.5 C 249.833,102.5 250.167,102.5 250.5,102.5C 251.499,107.06 252.332,111.727 253,116.5C 253.391,173.479 253.558,230.312 253.5,287C 251.877,292.466 251.543,297.966 252.5,303.5C 252.167,303.5 251.833,303.5 251.5,303.5C 250.372,298.022 249.039,292.689 247.5,287.5C 247.182,226.811 247.515,166.144 248.5,105.5C 248.557,104.391 248.89,103.391 249.5,102.5 Z"/></g>
<g><path style="opacity:1" fill="#cdcee8" d="M 248.5,105.5 C 247.515,166.144 247.182,226.811 247.5,287.5C 246.335,228.001 246.168,168.335 247,108.5C 247.232,107.263 247.732,106.263 248.5,105.5 Z"/></g>
<g><path style="opacity:1" fill="#0e0c5d" d="M 399.5,137.5 C 396.167,135.833 392.833,134.167 389.5,132.5C 388.07,131.463 386.403,130.796 384.5,130.5C 381.52,129.734 378.52,128.901 375.5,128C 362.171,127.5 348.837,127.333 335.5,127.5C 330.167,127.5 324.833,127.5 319.5,127.5C 319.5,126.5 319.5,125.5 319.5,124.5C 338.226,124.586 354.226,124.086 367.5,123C 374.164,124.608 380.83,126.275 387.5,128C 391.051,130.028 394.551,132.195 398,134.5C 398.333,134.167 398.667,133.833 399,133.5C 399.49,134.793 399.657,136.127 399.5,137.5 Z"/></g>
<g><path style="opacity:1" fill="#251f64" d="M 543.5,87.5 C 544.674,88.5137 545.34,89.847 545.5,91.5C 545.66,93.153 546.326,94.4863 547.5,95.5C 547.259,97.8984 547.926,99.8984 549.5,101.5C 550.787,104.698 551.453,108.031 551.5,111.5C 551.811,172.183 551.477,232.849 550.5,293.5C 550.672,294.492 550.338,295.158 549.5,295.5C 549.667,234.166 549.5,172.832 549,111.5C 547.272,103.481 545.439,95.4812 543.5,87.5 Z"/></g>
<g><path style="opacity:1" fill="#e3e6f7" d="M 551.5,111.5 C 552.665,172.332 552.832,233.332 552,294.5C 551.617,293.944 551.117,293.611 550.5,293.5C 551.477,232.849 551.811,172.183 551.5,111.5 Z"/></g>
<g><path style="opacity:1" fill="#010252" d="M 317.5,128.5 C 317.5,144.167 317.5,159.833 317.5,175.5C 316.5,175.5 315.5,175.5 314.5,175.5C 314.5,159.5 314.5,143.5 314.5,127.5C 315.791,127.263 316.791,127.596 317.5,128.5 Z"/></g>
<g><path style="opacity:1" fill="#9998fd" d="M 384.5,130.5 C 386.403,130.796 388.07,131.463 389.5,132.5C 388.325,132.281 387.325,132.614 386.5,133.5C 390.628,135.398 394.628,137.565 398.5,140C 399.337,141.011 399.67,142.178 399.5,143.5C 400.5,143.5 401.5,143.5 402.5,143.5C 402.512,147.859 404.345,151.192 408,153.5C 408.273,155.101 408.773,156.601 409.5,158C 409.167,158.333 408.833,158.667 408.5,159C 409.448,159.483 410.448,159.649 411.5,159.5C 413.076,170.25 412.742,180.916 410.5,191.5C 408.058,191.119 407.391,191.786 408.5,193.5C 405.788,198.506 402.788,203.173 399.5,207.5C 399.5,207.833 399.5,208.167 399.5,208.5C 398.833,208.5 398.167,208.5 397.5,208.5C 397.44,207.957 397.107,207.624 396.5,207.5C 387.56,213.146 377.893,216.479 367.5,217.5C 361.298,217.727 355.131,217.394 349,216.5C 345.752,217.245 343.585,219.245 342.5,222.5C 344.453,234.652 345.119,246.985 344.5,259.5C 336.833,259.5 329.167,259.5 321.5,259.5C 321.333,217.165 321.5,174.832 322,132.5C 323.44,130.954 325.273,130.121 327.5,130C 341.833,129.333 356.167,129.333 370.5,130C 375.267,130.345 379.934,131.179 384.5,132.5C 385.463,132.03 385.463,131.363 384.5,130.5 Z"/></g>
<g><path style="opacity:1" fill="#a0a1fc" d="M 335.5,127.5 C 348.837,127.333 362.171,127.5 375.5,128C 378.52,128.901 381.52,129.734 384.5,130.5C 385.463,131.363 385.463,132.03 384.5,132.5C 379.934,131.179 375.267,130.345 370.5,130C 356.167,129.333 341.833,129.333 327.5,130C 325.273,130.121 323.44,130.954 322,132.5C 321.5,174.832 321.333,217.165 321.5,259.5C 320.833,259.5 320.167,259.5 319.5,259.5C 319.5,215.833 319.5,172.167 319.5,128.5C 325.026,128.821 330.36,128.488 335.5,127.5 Z"/></g>
<g><path style="opacity:1" fill="#9c9cf2" d="M 389.5,132.5 C 392.833,134.167 396.167,135.833 399.5,137.5C 403.218,141.241 406.718,145.241 410,149.5C 412.035,152.561 413.201,155.895 413.5,159.5C 414.32,165.797 414.653,172.131 414.5,178.5C 413.665,189.83 409.331,199.496 401.5,207.5C 400.833,207.5 400.167,207.5 399.5,207.5C 402.788,203.173 405.788,198.506 408.5,193.5C 407.391,191.786 408.058,191.119 410.5,191.5C 412.742,180.916 413.076,170.25 411.5,159.5C 410.448,159.649 409.448,159.483 408.5,159C 408.833,158.667 409.167,158.333 409.5,158C 408.773,156.601 408.273,155.101 408,153.5C 404.345,151.192 402.512,147.859 402.5,143.5C 401.5,143.5 400.5,143.5 399.5,143.5C 399.67,142.178 399.337,141.011 398.5,140C 394.628,137.565 390.628,135.398 386.5,133.5C 387.325,132.614 388.325,132.281 389.5,132.5 Z"/></g>
<g><path style="opacity:1" fill="#9899ee" d="M 346.5,194.5 C 346.833,194.5 347.167,194.5 347.5,194.5C 355.988,194.994 364.321,194.327 372.5,192.5C 377.472,191.524 381.139,188.858 383.5,184.5C 385.311,182.615 386.478,180.281 387,177.5C 388.676,162.99 382.176,154.657 367.5,152.5C 367.5,152.167 367.5,151.833 367.5,151.5C 374.051,150.74 379.884,152.74 385,157.5C 389.204,164.597 390.537,172.264 389,180.5C 386.815,183.887 385.315,187.554 384.5,191.5C 379.021,193.603 373.354,195.437 367.5,197C 359.841,197.5 352.174,197.666 344.5,197.5C 344.333,182.163 344.5,166.83 345,151.5C 345.169,166.006 345.669,180.339 346.5,194.5 Z"/></g>
<g><path style="opacity:1" fill="#020554" d="M 367.5,152.5 C 382.176,154.657 388.676,162.99 387,177.5C 386.478,180.281 385.311,182.615 383.5,184.5C 383.668,177.404 383.668,170.404 383.5,163.5C 381.118,162.649 379.118,161.316 377.5,159.5C 376.914,159.709 376.414,160.043 376,160.5C 375.228,159.151 374.061,158.318 372.5,158C 372.833,157.667 373.167,157.333 373.5,157C 371.765,156.349 370.098,156.515 368.5,157.5C 365.539,156.817 365.205,155.984 367.5,155C 362.177,154.501 356.844,154.334 351.5,154.5C 350.591,158.763 349.924,163.097 349.5,167.5C 350.832,175.505 350.832,183.505 349.5,191.5C 357.352,191.175 365.018,191.508 372.5,192.5C 364.321,194.327 355.988,194.994 347.5,194.5C 347.5,180.5 347.5,166.5 347.5,152.5C 354.167,152.5 360.833,152.5 367.5,152.5 Z"/></g>
<g><path style="opacity:1" fill="#01005c" d="M 383.5,184.5 C 381.139,188.858 377.472,191.524 372.5,192.5C 365.018,191.508 357.352,191.175 349.5,191.5C 350.832,183.505 350.832,175.505 349.5,167.5C 349.924,163.097 350.591,158.763 351.5,154.5C 356.844,154.334 362.177,154.501 367.5,155C 365.205,155.984 365.539,156.817 368.5,157.5C 370.098,156.515 371.765,156.349 373.5,157C 373.167,157.333 372.833,157.667 372.5,158C 374.061,158.318 375.228,159.151 376,160.5C 376.414,160.043 376.914,159.709 377.5,159.5C 379.118,161.316 381.118,162.649 383.5,163.5C 383.668,170.404 383.668,177.404 383.5,184.5 Z"/></g>
<g><path style="opacity:1" fill="#5050a3" d="M 493.5,158.5 C 488.797,158.437 484.13,158.771 479.5,159.5C 481.807,157.953 484.473,157.287 487.5,157.5C 489.696,157.505 491.696,157.838 493.5,158.5 Z"/></g>
<g><path style="opacity:1" fill="#343589" d="M 367.5,151.5 C 367.5,151.833 367.5,152.167 367.5,152.5C 360.833,152.5 354.167,152.5 347.5,152.5C 347.5,166.5 347.5,180.5 347.5,194.5C 347.167,194.5 346.833,194.5 346.5,194.5C 346.5,180.167 346.5,165.833 346.5,151.5C 353.5,151.5 360.5,151.5 367.5,151.5 Z"/></g>
<g><path style="opacity:1" fill="#060857" d="M 401.5,207.5 C 409.331,199.496 413.665,189.83 414.5,178.5C 415.164,176.022 415.497,173.355 415.5,170.5C 415.706,166.531 415.039,162.865 413.5,159.5C 413.201,155.895 412.035,152.561 410,149.5C 406.718,145.241 403.218,141.241 399.5,137.5C 401.367,137.045 403.2,136.378 405,135.5C 405.833,135.833 406.667,136.167 407.5,136.5C 407.162,138.655 407.162,140.989 407.5,143.5C 408.873,143.343 410.207,143.51 411.5,144C 411.167,144.333 410.833,144.667 410.5,145C 410.793,148.094 412.459,149.594 415.5,149.5C 415.5,152.833 415.5,156.167 415.5,159.5C 416.5,159.5 417.5,159.5 418.5,159.5C 418.167,170.167 417.833,180.833 417.5,191.5C 413.58,192.409 412.247,194.742 413.5,198.5C 411.393,200.727 409.06,202.727 406.5,204.5C 406.709,205.086 407.043,205.586 407.5,206C 405.75,207.319 403.75,207.819 401.5,207.5 Z"/></g>
<g><path style="opacity:1" fill="#9998fe" d="M 463.5,189.5 C 463.179,191.048 462.179,191.715 460.5,191.5C 458.386,192.36 457.22,194.027 457,196.5C 456.174,217.073 456.341,237.573 457.5,258C 450.808,258.831 444.142,258.664 437.5,257.5C 436.563,225.818 436.23,194.152 436.5,162.5C 442.842,162.334 449.175,162.5 455.5,163C 456.455,166.099 457.289,169.266 458,172.5C 458.498,169.518 458.665,166.518 458.5,163.5C 459.167,166.5 459.833,169.5 460.5,172.5C 460.369,173.376 460.702,174.043 461.5,174.5C 462.333,173.5 463.167,172.5 464,171.5C 466.6,174.367 467.766,174.201 467.5,171C 473.147,166.093 479.647,162.927 487,161.5C 487.333,162.167 487.667,162.833 488,163.5C 488.333,162.167 488.667,160.833 489,159.5C 489.5,167.493 489.666,175.493 489.5,183.5C 482.56,183.544 475.727,184.211 469,185.5C 465.603,184.461 463.77,185.794 463.5,189.5 Z"/></g>
<g><path style="opacity:1" fill="#6869c1" d="M 413.5,159.5 C 415.039,162.865 415.706,166.531 415.5,170.5C 415.497,173.355 415.164,176.022 414.5,178.5C 414.653,172.131 414.32,165.797 413.5,159.5 Z"/></g>
<g><path style="opacity:1" fill="#7374c8" d="M 432.5,175.5 C 432.833,175.5 433.167,175.5 433.5,175.5C 433.5,203.833 433.5,232.167 433.5,260.5C 442.5,260.5 451.5,260.5 460.5,260.5C 460.169,238.327 460.503,216.327 461.5,194.5C 461.5,216.833 461.5,239.167 461.5,261.5C 452.167,261.5 442.833,261.5 433.5,261.5C 433.167,261.5 432.833,261.5 432.5,261.5C 432.5,232.833 432.5,204.167 432.5,175.5 Z"/></g>
<g><path style="opacity:1" fill="#9797f1" d="M 493.5,158.5 C 494.833,167.5 494.833,176.5 493.5,185.5C 487.788,185.313 482.121,185.646 476.5,186.5C 475.054,185.387 473.387,185.22 471.5,186C 468.929,187.454 466.262,188.62 463.5,189.5C 463.77,185.794 465.603,184.461 469,185.5C 475.727,184.211 482.56,183.544 489.5,183.5C 489.666,175.493 489.5,167.493 489,159.5C 488.667,160.833 488.333,162.167 488,163.5C 487.667,162.833 487.333,162.167 487,161.5C 479.647,162.927 473.147,166.093 467.5,171C 467.766,174.201 466.6,174.367 464,171.5C 463.167,172.5 462.333,173.5 461.5,174.5C 460.702,174.043 460.369,173.376 460.5,172.5C 465.263,166.955 470.93,162.622 477.5,159.5C 478.167,159.5 478.833,159.5 479.5,159.5C 484.13,158.771 488.797,158.437 493.5,158.5 Z"/></g>
<g><path style="opacity:1" fill="#323287" d="M 493.5,185.5 C 492.432,186.434 491.099,186.768 489.5,186.5C 484.077,186.524 478.743,187.19 473.5,188.5C 474.5,187.833 475.5,187.167 476.5,186.5C 482.121,185.646 487.788,185.313 493.5,185.5 Z"/></g>
<g><path style="opacity:1" fill="#47479c" d="M 473.5,188.5 C 471.064,189.871 468.397,190.871 465.5,191.5C 467.617,189.345 470.284,188.345 473.5,188.5 Z"/></g>
<g><path style="opacity:1" fill="#9899f6" d="M 458.5,163.5 C 458.665,166.518 458.498,169.518 458,172.5C 457.289,169.266 456.455,166.099 455.5,163C 449.175,162.5 442.842,162.334 436.5,162.5C 436.23,194.152 436.563,225.818 437.5,257.5C 444.142,258.664 450.808,258.831 457.5,258C 456.341,237.573 456.174,217.073 457,196.5C 457.22,194.027 458.386,192.36 460.5,191.5C 459.677,213.761 459.177,236.094 459,258.5C 451.246,259.647 443.413,259.814 435.5,259C 434.908,225.89 434.241,198.056 433.5,175.5C 433.167,175.5 432.833,175.5 432.5,175.5C 432.207,170.222 432.207,165.056 432.5,160C 440.5,159.333 448.5,159.333 456.5,160C 457.823,160.816 458.489,161.983 458.5,163.5 Z"/></g>
<g><path style="opacity:1" fill="#abacfd" d="M 460.5,191.5 C 462.179,191.715 463.179,191.048 463.5,189.5C 466.262,188.62 468.929,187.454 471.5,186C 473.387,185.22 475.054,185.387 476.5,186.5C 475.5,187.167 474.5,187.833 473.5,188.5C 470.284,188.345 467.617,189.345 465.5,191.5C 464.128,192.512 462.795,193.512 461.5,194.5C 460.503,216.327 460.169,238.327 460.5,260.5C 451.5,260.5 442.5,260.5 433.5,260.5C 433.5,232.167 433.5,203.833 433.5,175.5C 434.241,198.056 434.908,225.89 435.5,259C 443.413,259.814 451.246,259.647 459,258.5C 459.177,236.094 459.677,213.761 460.5,191.5 Z"/></g>
<g><path style="opacity:1" fill="#050755" d="M 489.5,186.5 C 488.803,188.071 488.47,189.571 488.5,191C 485.571,191.777 482.737,191.61 480,190.5C 477.595,191.274 475.095,191.774 472.5,192C 470.311,192.677 469.978,193.844 471.5,195.5C 468.956,196.426 466.456,197.426 464,198.5C 463.5,220.164 463.333,241.831 463.5,263.5C 453.344,262.964 443.344,262.298 433.5,261.5C 442.833,261.5 452.167,261.5 461.5,261.5C 461.5,239.167 461.5,216.833 461.5,194.5C 462.795,193.512 464.128,192.512 465.5,191.5C 468.397,190.871 471.064,189.871 473.5,188.5C 478.743,187.19 484.077,186.524 489.5,186.5 Z"/></g>
<g><path style="opacity:1" fill="#010254" d="M 317.5,207.5 C 317.5,223.5 317.5,239.5 317.5,255.5C 316.5,255.5 315.5,255.5 314.5,255.5C 314.5,239.5 314.5,223.5 314.5,207.5C 315.5,207.5 316.5,207.5 317.5,207.5 Z"/></g>
<g><path style="opacity:1" fill="#9293e7" d="M 397.5,208.5 C 388.643,214.901 378.643,218.567 367.5,219.5C 360.5,219.5 353.5,219.5 346.5,219.5C 353.5,218.833 360.5,218.167 367.5,217.5C 377.893,216.479 387.56,213.146 396.5,207.5C 397.107,207.624 397.44,207.957 397.5,208.5 Z"/></g>
<g><path style="opacity:1" fill="#aeaffe" d="M 367.5,217.5 C 360.5,218.167 353.5,218.833 346.5,219.5C 345.504,232.99 345.171,246.656 345.5,260.5C 336.833,260.5 328.167,260.5 319.5,260.5C 319.5,260.167 319.5,259.833 319.5,259.5C 320.167,259.5 320.833,259.5 321.5,259.5C 329.167,259.5 336.833,259.5 344.5,259.5C 345.119,246.985 344.453,234.652 342.5,222.5C 343.585,219.245 345.752,217.245 349,216.5C 355.131,217.394 361.298,217.727 367.5,217.5 Z"/></g>
<g><path style="opacity:1" fill="#2b2c7f" d="M 346.5,219.5 C 353.5,219.5 360.5,219.5 367.5,219.5C 361.021,220.491 354.354,220.824 347.5,220.5C 347.829,234.344 347.496,248.01 346.5,261.5C 346.5,247.5 346.5,233.5 346.5,219.5 Z"/></g>
<g><path style="opacity:1" fill="#181774" d="M 317.5,128.5 C 317.833,128.5 318.167,128.5 318.5,128.5C 318.168,172.67 318.501,216.67 319.5,260.5C 328.318,261.493 337.318,261.827 346.5,261.5C 338.016,262.493 329.349,262.826 320.5,262.5C 319.504,262.586 318.671,262.252 318,261.5C 317.505,259.527 317.338,257.527 317.5,255.5C 317.5,239.5 317.5,223.5 317.5,207.5C 317.5,196.833 317.5,186.167 317.5,175.5C 317.5,159.833 317.5,144.167 317.5,128.5 Z"/></g>
<g><path style="opacity:1" fill="#8886ea" d="M 319.5,127.5 C 324.833,127.5 330.167,127.5 335.5,127.5C 330.36,128.488 325.026,128.821 319.5,128.5C 319.5,172.167 319.5,215.833 319.5,259.5C 319.5,259.833 319.5,260.167 319.5,260.5C 318.501,216.67 318.168,172.67 318.5,128.5C 318.5,127.833 318.833,127.5 319.5,127.5 Z"/></g>
<g><path style="opacity:1" fill="#010253" d="M 397.5,208.5 C 398.167,208.5 398.833,208.5 399.5,208.5C 399.5,210.833 399.5,213.167 399.5,215.5C 398.07,215.579 396.736,215.246 395.5,214.5C 394.304,214.846 394.304,215.346 395.5,216C 393.559,216.304 391.893,217.137 390.5,218.5C 388.119,217.667 385.786,218 383.5,219.5C 384.025,220.192 384.692,220.692 385.5,221C 384.833,221.167 384.167,221.333 383.5,221.5C 381.534,221.105 379.534,220.772 377.5,220.5C 377.511,221.441 377.011,222.108 376,222.5C 373.88,221.541 371.713,221.374 369.5,222C 370.167,222.333 370.833,222.667 371.5,223C 364.174,223.5 356.841,223.666 349.5,223.5C 349.447,235.917 349.947,248.25 351,260.5C 350.667,260.167 350.333,259.833 350,259.5C 349.535,260.931 348.701,262.097 347.5,263C 343.749,263.066 340.249,263.899 337,265.5C 331.493,263.971 325.993,262.971 320.5,262.5C 329.349,262.826 338.016,262.493 346.5,261.5C 347.496,248.01 347.829,234.344 347.5,220.5C 354.354,220.824 361.021,220.491 367.5,219.5C 378.643,218.567 388.643,214.901 397.5,208.5 Z"/></g>
<g><path style="opacity:1" fill="#040757" d="M 477.5,159.5 C 470.93,162.622 465.263,166.955 460.5,172.5C 459.833,169.5 459.167,166.5 458.5,163.5C 458.489,161.983 457.823,160.816 456.5,160C 448.5,159.333 440.5,159.333 432.5,160C 432.207,165.056 432.207,170.222 432.5,175.5C 432.5,204.167 432.5,232.833 432.5,261.5C 431.539,259.735 431.205,257.735 431.5,255.5C 430.5,255.5 429.5,255.5 428.5,255.5C 428.834,223.516 428.834,191.516 428.5,159.5C 429.5,159.5 430.5,159.5 431.5,159.5C 431.5,158.5 431.5,157.5 431.5,156.5C 439.84,156.334 448.173,156.5 456.5,157C 459.21,158.755 460.877,161.255 461.5,164.5C 465.586,160.587 470.919,158.92 477.5,159.5 Z"/></g>
<g><path style="opacity:1" fill="#8989df" d="M 346.5,219.5 C 346.5,233.5 346.5,247.5 346.5,261.5C 337.318,261.827 328.318,261.493 319.5,260.5C 328.167,260.5 336.833,260.5 345.5,260.5C 345.171,246.656 345.504,232.99 346.5,219.5 Z"/></g>
<g><path style="opacity:1" fill="#8181a6" d="M 247.5,287.5 C 249.039,292.689 250.372,298.022 251.5,303.5C 250.442,302.4 249.608,301.066 249,299.5C 248.358,295.509 247.858,291.509 247.5,287.5 Z"/></g>
<g><path style="opacity:1" fill="#878bab" d="M 251.5,303.5 C 251.833,303.5 252.167,303.5 252.5,303.5C 252.433,304.959 252.766,306.292 253.5,307.5C 253.5,307.833 253.5,308.167 253.5,308.5C 251.787,307.365 251.12,305.698 251.5,303.5 Z"/></g>
<g><path style="opacity:1" fill="#2e2a61" d="M 253.5,307.5 C 255.176,308.183 255.843,309.517 255.5,311.5C 253.952,311.179 253.285,310.179 253.5,308.5C 253.5,308.167 253.5,307.833 253.5,307.5 Z"/></g>
<g><path style="opacity:1" fill="#7c7fa0" d="M 546.5,307.5 C 546.262,309.404 545.262,310.738 543.5,311.5C 543.738,309.596 544.738,308.262 546.5,307.5 Z"/></g>
<g><path style="opacity:1" fill="#c2c3dd" d="M 256.5,315.5 C 258.194,316.527 259.527,317.861 260.5,319.5C 261.5,321.5 262.5,323.5 263.5,325.5C 262.18,324.058 260.514,323.392 258.5,323.5C 258.713,320.549 258.046,317.882 256.5,315.5 Z"/></g>
<g><path style="opacity:1" fill="#daddea" d="M 543.5,313.5 C 542.589,317.504 541.589,321.171 540.5,324.5C 537.939,325.132 535.605,326.132 533.5,327.5C 536.453,322.55 539.786,317.883 543.5,313.5 Z"/></g>
<g><path style="opacity:1" fill="#0a0855" d="M 260.5,319.5 C 261.239,319.369 261.906,319.536 262.5,320C 265.266,323.522 268.266,326.855 271.5,330C 272.5,330.667 273.5,330.667 274.5,330C 272.393,328.736 271.393,326.903 271.5,324.5C 276.526,324.001 279.859,326.001 281.5,330.5C 279.35,330.095 277.35,329.595 275.5,329C 276.167,329.667 276.833,330.333 277.5,331C 275.944,331.72 274.944,332.887 274.5,334.5C 270.543,331.878 266.876,328.878 263.5,325.5C 262.5,323.5 261.5,321.5 260.5,319.5 Z"/></g>
<g><path style="opacity:1" fill="#9997c5" d="M 533.5,327.5 C 532.833,328.833 531.833,329.833 530.5,330.5C 530.5,328.5 531.5,327.5 533.5,327.5 Z"/></g>
<g><path style="opacity:1" fill="#2d2866" d="M 274.5,334.5 C 277.005,336.715 280.005,337.881 283.5,338C 284.305,339.113 284.972,340.279 285.5,341.5C 283.255,340.904 281.255,339.904 279.5,338.5C 277.251,337.92 275.585,336.587 274.5,334.5 Z"/></g>
<g><path style="opacity:1" fill="#a6a6c2" d="M 517.5,339.5 C 516.393,341.969 514.393,342.969 511.5,342.5C 513.181,340.992 515.181,339.992 517.5,339.5 Z"/></g>
<g><path style="opacity:1" fill="#bbbcd0" d="M 279.5,338.5 C 281.255,339.904 283.255,340.904 285.5,341.5C 287.153,341.66 288.486,342.326 289.5,343.5C 288.167,343.5 286.833,343.5 285.5,343.5C 284.328,342.295 282.995,342.295 281.5,343.5C 280.678,341.861 280.011,340.195 279.5,338.5 Z"/></g>
<g><path style="opacity:1" fill="#e2e5ea" d="M 530.5,330.5 C 530.775,332.842 531.608,332.842 533,330.5C 533.667,331.167 533.667,331.833 533,332.5C 530.074,333.922 527.574,335.922 525.5,338.5C 523.577,339.308 521.577,339.808 519.5,340C 518.663,341.011 518.33,342.178 518.5,343.5C 514.616,343.424 510.95,344.09 507.5,345.5C 509.076,344.857 510.41,343.857 511.5,342.5C 514.393,342.969 516.393,341.969 517.5,339.5C 522.008,336.747 526.341,333.747 530.5,330.5 Z"/></g>
<g><path style="opacity:1" fill="#bdbfd0" d="M 289.5,343.5 C 291.435,344.15 293.435,344.483 295.5,344.5C 295.5,344.833 295.5,345.167 295.5,345.5C 297.838,347.04 300.505,347.706 303.5,347.5C 303.5,347.833 303.5,348.167 303.5,348.5C 297.927,348.953 293.261,347.287 289.5,343.5 Z"/></g>
<g><path style="opacity:1" fill="#141156" d="M 295.5,345.5 C 295.5,345.167 295.5,344.833 295.5,344.5C 300.822,345.029 306.156,345.529 311.5,346C 370.167,346.667 428.833,346.667 487.5,346C 492.808,345.17 498.141,344.67 503.5,344.5C 500.913,345.749 498.246,346.749 495.5,347.5C 432.512,348.47 369.512,348.804 306.5,348.5C 305.5,348.5 304.5,348.5 303.5,348.5C 303.5,348.167 303.5,347.833 303.5,347.5C 301.095,346.232 298.428,345.565 295.5,345.5 Z"/></g>
<g><path style="opacity:1" fill="#8e8eb1" d="M 511.5,342.5 C 510.41,343.857 509.076,344.857 507.5,345.5C 503.618,346.803 499.618,347.47 495.5,347.5C 498.246,346.749 500.913,345.749 503.5,344.5C 506.221,344.037 508.888,343.371 511.5,342.5 Z"/></g>
<g><path style="opacity:1" fill="#e8e9e7" d="M 285.5,343.5 C 286.833,343.5 288.167,343.5 289.5,343.5C 293.261,347.287 297.927,348.953 303.5,348.5C 304.5,348.5 305.5,348.5 306.5,348.5C 367.665,349.665 428.999,349.832 490.5,349C 492.382,348.802 494.048,348.302 495.5,347.5C 499.618,347.47 503.618,346.803 507.5,345.5C 505.534,346.834 503.534,348.168 501.5,349.5C 499.577,350.308 497.577,350.808 495.5,351C 431.5,351.667 367.5,351.667 303.5,351C 295.807,351.121 289.14,348.787 283.5,344C 284.094,343.536 284.761,343.369 285.5,343.5 Z"/></g>
<g><path style="opacity:1" fill="#9d9dbc" d="M 495.5,347.5 C 494.048,348.302 492.382,348.802 490.5,349C 428.999,349.832 367.665,349.665 306.5,348.5C 369.512,348.804 432.512,348.47 495.5,347.5 Z"/></g>
<g><path style="opacity:1" fill="#5d5989" d="M 295.5,345.5 C 298.428,345.565 301.095,346.232 303.5,347.5C 300.505,347.706 297.838,347.04 295.5,345.5 Z"/></g>
</svg>
