<svg version="1.2" xmlns="http://www.w3.org/2000/svg" viewBox="0 0 60 61" width="60" height="61"><style>.a{fill:#ed1d26}</style><path fill-rule="evenodd" class="a" d="m59.4 56.3q0 0.2-0.1 0.4-0.1 0.2-0.3 0.3-0.1 0.1-0.3 0.2l-13.4 3.5q0 0 0 0-0.1 0-0.1 0.1 0 0-0.1 0 0 0 0 0-0.2 0-0.3-0.1-0.2 0-0.3-0.1-0.1-0.1-0.2-0.3-0.1-0.1-0.2-0.3l-14.5-54.3v53.3q0 0.2-0.1 0.3-0.1 0.2-0.2 0.4-0.2 0.1-0.3 0.2-0.2 0-0.4 0h-27.6q-0.2 0-0.4 0-0.2-0.1-0.3-0.2-0.1-0.2-0.2-0.4-0.1-0.1-0.1-0.3v-57.2q0-0.2 0.1-0.4 0.1-0.2 0.2-0.3 0.1-0.1 0.3-0.2 0.2-0.1 0.4-0.1h27.6q0.2 0 0.4 0.1 0.1 0.1 0.3 0.2 0.1 0.1 0.2 0.3 0.1 0.2 0.1 0.4v2.1q0 0 0.1-0.1 0 0 0.1-0.1 0 0 0.1 0 0.1-0.1 0.1-0.1l13.4-3.6q0.2 0 0.4 0 0.1 0 0.3 0.1 0.2 0.1 0.3 0.3 0.1 0.1 0.2 0.3l14.8 55.3q0 0.1 0 0.3zm-45.6-53.5h-11.8v55.2h11.8zm13.8 0h-11.8v55.2h11.8zm29.6 52.7l-14.3-53.3-11.4 3 14.3 53.4z"/><path class="a" d="m10.8 10.7h-5.9c-0.2 0-0.5 0.1-0.7 0.2-0.2 0.2-0.3 0.5-0.3 0.8 0 0.2 0.1 0.5 0.3 0.7 0.2 0.1 0.5 0.2 0.7 0.2h5.9c0.3 0 0.6-0.1 0.8-0.2 0.2-0.2 0.3-0.5 0.3-0.7 0-0.3-0.1-0.6-0.3-0.8q-0.3-0.2-0.8-0.2z"/><path class="a" d="m24.6 6.7h-5.9c-0.2 0-0.5 0.1-0.7 0.3-0.2 0.2-0.3 0.4-0.3 0.7 0 0.3 0.1 0.5 0.3 0.7 0.2 0.2 0.5 0.3 0.7 0.3h5.9q0.4 0 0.7-0.3 0.3-0.3 0.3-0.7 0-0.4-0.3-0.7-0.3-0.3-0.7-0.3z"/><path class="a" d="m24.6 10.7h-5.9c-0.2 0-0.5 0.1-0.7 0.2-0.2 0.2-0.3 0.5-0.3 0.8 0 0.2 0.1 0.5 0.3 0.7 0.2 0.1 0.5 0.2 0.7 0.2h5.9q0.4 0 0.7-0.3 0.3-0.2 0.3-0.6 0-0.4-0.3-0.7-0.3-0.3-0.7-0.3z"/><path class="a" d="m42.3 7.5q0-0.2-0.1-0.4-0.2-0.1-0.3-0.2-0.2-0.1-0.4-0.2-0.2 0-0.4 0.1l-5.7 1.5q-0.4 0.1-0.7 0.4-0.2 0.4-0.1 0.8 0.2 0.4 0.5 0.6 0.4 0.2 0.8 0.1l5.7-1.5q0.2-0.1 0.3-0.2 0.2-0.1 0.3-0.3 0.1-0.1 0.1-0.3 0.1-0.2 0-0.4z"/><path class="a" d="m43.3 11.3q0-0.2-0.2-0.4-0.1-0.1-0.2-0.2-0.2-0.1-0.4-0.2-0.2 0-0.4 0.1l-5.7 1.5q-0.4 0.1-0.6 0.5-0.2 0.3-0.1 0.7 0.1 0.4 0.5 0.6 0.3 0.2 0.7 0.1l5.7-1.5q0.2-0.1 0.4-0.2 0.1-0.1 0.2-0.3 0.1-0.2 0.1-0.3 0.1-0.2 0-0.4z"/><path class="a" d="m53 47.4q0-0.1-0.2-0.3-0.1-0.1-0.3-0.2-0.1-0.1-0.3-0.2-0.2 0-0.4 0.1l-5.7 1.5q-0.4 0.1-0.6 0.4-0.2 0.3-0.1 0.7 0 0.3 0.3 0.6 0.3 0.2 0.6 0.2 0.1 0 0.1 0 0 0 0.1 0 0 0 0 0 0.1 0 0.1 0l5.7-1.5q0.2-0.1 0.4-0.2 0.1-0.1 0.2-0.3 0.1-0.2 0.1-0.4 0.1-0.2 0-0.4z"/><path class="a" d="m54 51.3q0-0.2-0.1-0.4-0.2-0.1-0.3-0.2-0.2-0.1-0.4-0.2-0.2 0-0.4 0.1l-5.7 1.5q-0.3 0.1-0.6 0.4-0.2 0.3-0.1 0.7 0 0.3 0.3 0.6 0.3 0.2 0.7 0.2 0 0 0 0 0.1 0 0.1 0 0 0 0.1 0 0 0 0 0l5.7-1.5q0.2-0.1 0.4-0.2 0.1-0.1 0.2-0.3 0.1-0.2 0.2-0.4 0-0.2-0.1-0.3z"/><path class="a" d="m24.6 48.1h-5.9c-0.2 0-0.5 0.1-0.7 0.3-0.2 0.2-0.3 0.4-0.3 0.7 0 0.3 0.1 0.5 0.3 0.7 0.2 0.2 0.5 0.3 0.7 0.3h5.9c0.3 0 0.6-0.1 0.8-0.3 0.1-0.2 0.3-0.4 0.3-0.7 0-0.3-0.2-0.5-0.3-0.7-0.2-0.2-0.5-0.3-0.8-0.3z"/><path class="a" d="m24.6 52.1h-5.9c-0.2 0-0.5 0.1-0.7 0.2-0.2 0.2-0.3 0.5-0.3 0.7 0 0.3 0.1 0.6 0.3 0.8 0.2 0.1 0.5 0.2 0.7 0.2h5.9c0.3 0 0.6-0.1 0.8-0.2 0.1-0.2 0.3-0.5 0.3-0.8 0-0.2-0.2-0.5-0.3-0.7-0.2-0.1-0.5-0.2-0.8-0.2z"/><path class="a" d="m10.8 48.1h-5.9c-0.2 0-0.5 0.1-0.7 0.3-0.2 0.2-0.3 0.4-0.3 0.7 0 0.3 0.1 0.5 0.3 0.7 0.2 0.2 0.5 0.3 0.7 0.3h5.9c0.3 0 0.6-0.1 0.8-0.3 0.2-0.2 0.3-0.4 0.3-0.7 0-0.3-0.1-0.5-0.3-0.7q-0.3-0.3-0.8-0.3z"/><path class="a" d="m10.8 52.1h-5.9c-0.2 0-0.5 0.1-0.7 0.2-0.2 0.2-0.3 0.5-0.3 0.7 0 0.3 0.1 0.6 0.3 0.8 0.2 0.1 0.5 0.2 0.7 0.2h5.9c0.3 0 0.6-0.1 0.8-0.2 0.2-0.2 0.3-0.5 0.3-0.8 0-0.2-0.1-0.5-0.3-0.7q-0.3-0.2-0.8-0.2z"/></svg>