<svg version="1.2" xmlns="http://www.w3.org/2000/svg" viewBox="0 0 61 61" width="61" height="61"><style>.a{fill:#ed1d26}</style><path fill-rule="evenodd" class="a" d="m60 5.6c0.5 1.1 0.7 2.3 0.7 3.5 0 1.2-0.2 2.4-0.7 3.5-0.4 1.1-1.1 2.1-1.9 3q0 0-0.1 0 0 0 0 0-0.1 0.1-0.1 0.1 0 0-0.1 0 0 0.1-0.1 0.1 0 0 0 0-0.1 0-0.1 0-0.1 0-0.1 0-0.1 0-0.1 0 0 0.1 0 0.1-0.1 0-0.1 0-0.1-0.1-0.1-0.1-0.1 0-0.1 0-0.1 0-0.1 0-0.1 0-0.1-0.1-0.1 0-0.1 0 0 0-0.1-0.1 0 0 0 0l-5.1-5.1-1.9 2c2.6 2.8 4.5 6 5.7 9.6 1.1 3.6 1.5 7.4 1.1 11.1-0.4 3.8-1.6 7.4-3.5 10.6-2 3.3-4.6 6.1-7.7 8.2l7.1 7q0.2 0.3 0.2 0.7 0 0.5-0.2 0.8-0.3 0.2-0.8 0.2-0.4 0-0.7-0.2l-7.3-7.4q-3 1.8-6.4 2.7-3.3 0.9-6.8 0.9-3.5 0-6.9-0.9-3.3-0.9-6.3-2.7l-7.4 7.4q-0.3 0.2-0.7 0.2-0.4 0-0.7-0.3-0.3-0.3-0.3-0.7 0-0.4 0.3-0.7l7-7c-3.1-2.1-5.7-4.9-7.6-8.2-2-3.2-3.2-6.8-3.6-10.6-0.4-3.7 0-7.5 1.2-11.1 1.2-3.6 3.1-6.8 5.7-9.6l-2-2-5 5.1q0 0-0.1 0 0 0.1-0.1 0.1 0 0 0 0-0.1 0.1-0.1 0.1-0.1 0-0.1 0-0.1 0-0.1 0-0.1 0-0.1 0.1-0.1 0-0.1 0 0 0-0.1 0 0-0.1 0-0.1-0.1 0-0.1 0-0.1 0-0.1 0-0.1 0-0.1 0 0 0-0.1-0.1 0 0 0 0-0.1 0-0.1-0.1 0 0-0.1 0 0 0 0 0c-1.7-1.7-2.7-4.1-2.7-6.5 0-2.4 1-4.7 2.7-6.4 1.7-1.7 4-2.7 6.4-2.7 2.4 0 4.8 1 6.5 2.7q0 0 0 0 0.1 0.1 0.1 0.2 0.1 0 0.1 0.1 0 0.1 0 0.2 0.1 0.1 0.1 0.1 0 0.1 0 0.1 0 0 0 0.1 0 0-0.1 0.1 0 0 0 0.1 0 0 0 0.1 0 0-0.1 0.1 0 0 0 0 0 0.1-0.1 0.1 0 0.1 0 0.1l-5.1 5 2 2q1.8-1.7 3.9-3 2.1-1.3 4.3-2.2 2.3-0.9 4.8-1.4 2.4-0.4 4.8-0.4 0.1 0 0.1 0 0 0 0 0 0 0 0 0 0 0 0 0 0 0 0 0 2.5 0 4.9 0.4 2.4 0.5 4.7 1.4 2.3 0.9 4.4 2.2 2.1 1.3 3.9 3l1.9-2-5-5q0 0-0.1-0.1 0 0 0-0.1-0.1 0-0.1 0 0-0.1 0-0.1 0-0.1-0.1-0.1 0-0.1 0-0.1 0-0.1 0-0.1 0-0.1 0-0.1 0 0 0-0.1 0 0 0 0 0-0.1 0-0.1 0-0.1 0-0.1 0.1-0.1 0.1-0.1 0 0 0-0.1 0 0 0.1-0.1 0 0 0-0.1 0.1 0 0.1 0c0.8-0.9 1.8-1.5 3-2 1.1-0.5 2.2-0.7 3.4-0.7 1.2 0 2.4 0.2 3.5 0.7 1.1 0.5 2.1 1.1 3 2 0.8 0.8 1.5 1.8 1.9 2.9zm-46.6-2.2c-1.4-1-3.1-1.5-4.8-1.3-1.7 0.1-3.3 0.8-4.5 2-1.2 1.2-1.9 2.8-2 4.5-0.2 1.7 0.3 3.4 1.3 4.8zm40.7 21.4q-0.5-2.2-1.4-4.2-0.9-2.1-2.1-4-1.3-1.9-2.9-3.5 0 0-0.1 0 0 0 0 0-1.6-1.6-3.5-2.9-1.8-1.3-3.9-2.2-2.1-0.9-4.3-1.4-2.2-0.5-4.4-0.6v5.1q0 0.4-0.3 0.7-0.3 0.3-0.7 0.3-0.5 0-0.8-0.3-0.2-0.3-0.3-0.7v-5.1q-2.2 0.1-4.4 0.6-2.2 0.5-4.3 1.4-2.1 0.9-3.9 2.2-1.9 1.3-3.5 2.9 0 0 0 0-0.1 0-0.1 0-1.6 1.6-2.8 3.5-1.3 1.9-2.2 4-0.9 2-1.4 4.2-0.5 2.2-0.6 4.5h5q0.4 0 0.7 0.3 0.3 0.3 0.3 0.7 0 0.4-0.3 0.7-0.3 0.3-0.7 0.3h-5c0.1 3 0.8 6 2 8.8 1.2 2.7 3 5.2 5.1 7.4 2.1 2.1 4.6 3.8 7.4 5 2.8 1.3 5.7 1.9 8.7 2.1v-5.1q0.1-0.4 0.3-0.7 0.3-0.3 0.8-0.3 0.4 0 0.7 0.3 0.3 0.3 0.3 0.7v5.1c3-0.2 6-0.9 8.7-2.1 2.8-1.2 5.3-2.9 7.4-5 2.2-2.2 3.9-4.7 5.1-7.4 1.2-2.8 1.9-5.8 2-8.8h-5q-0.4 0-0.7-0.3-0.3-0.3-0.3-0.7 0-0.4 0.3-0.7 0.3-0.3 0.7-0.3h5q-0.1-2.3-0.6-4.5zm4.7-16.3c-0.1-1.7-0.9-3.3-2.1-4.5-1.2-1.2-2.8-1.9-4.5-2-1.7-0.2-3.4 0.3-4.7 1.4l9.9 9.9c1-1.4 1.5-3.1 1.4-4.8z"/><path fill-rule="evenodd" class="a" d="m45.5 20.8q0.4 0.1 0.7 0.5 0.2 0.3 0.1 0.7-0.2 0.4-0.5 0.7l-11.5 6.6c0.3 1.2 0.1 2.6-0.7 3.6-0.7 1-2 1.6-3.2 1.6-1.3 0-2.5-0.6-3.3-1.6-0.7-1-1-2.4-0.6-3.6l-6.3-3.6q-0.3-0.2-0.5-0.6-0.1-0.4 0.1-0.8 0.3-0.4 0.7-0.5 0.4-0.1 0.7 0.1l6.3 3.6h0.1q0.5-0.6 1.3-0.9 0.7-0.3 1.5-0.3 0.8 0 1.6 0.4 0.7 0.3 1.3 0.8l11.5-6.6c0.2-0.1 0.5-0.2 0.7-0.1zm-14.4 11.4q0.4-0.1 0.7-0.4 0.3-0.3 0.4-0.6 0.2-0.4 0.2-0.8c0-0.8-0.5-1.6-1.3-1.9-0.7-0.3-1.6-0.1-2.2 0.4-0.5 0.6-0.7 1.5-0.4 2.3 0.3 0.7 1.1 1.2 1.9 1.2q0.4 0 0.7-0.2z"/></svg>